# xmcd CD database file
#
# Track frame offsets:
#	150
#	12688
#	26046
#	37652
#	48764
#	60081
#	70391
#	84117
#	94505
#	105314
#	119430
#	133200
#	147884
#	162400
#	175604
#	188502
#	199891
#	212280
#	222327
#	234247
#
# Disc length: 3302 seconds
#
# Revision: 3
# Processed by: cddbd v1.5.2PL0 Copyright (c) Steve Scherf et al.
# Submitted via: CDex 1.70beta2
#
DISCID=000ce414
DTITLE=Lefty Frizzell - Give Me More, More, More [CD1 - I Love You A Thousand Ways)
DYEAR=2007
DGENRE=Country
TTITLE0=I Love You A Thousand Ways
TTITLE1=If You've Got The Money (I've Got The Time)
TTITLE2=Shine Shave Shower (It's Saturday)
TTITLE3=Cold Feet
TTITLE4=Look What Thoughts Will Do
TTITLE5=My Baby's Just Like Money
TTITLE6=I Want To Be With You Always
TTITLE7=Give Me More More More (Of Your Kisses)
TTITLE8=How Long Will It Take (To Stop Lovin' You)
TTITLE9=Always Late (With Your Kisses)
TTITLE10=Mom And Dad's Waltz
TTITLE11=Teasures Untold
TTITLE12=Blue Yodel No 6
TTITLE13=Travelin' Blues
TTITLE14=My Old Pal
TTITLE15=Blue Yodel No 2
TTITLE16=Lullaby Yodel
TTITLE17=Brakeman's Blues
TTITLE18=My Rough And Rowdy Ways
TTITLE19=Don't Stay Away (Till Love Grows Cold)
EXTD=YEAR: 2007
EXTT0=
EXTT1=
EXTT2=
EXTT3=
EXTT4=
EXTT5=
EXTT6=
EXTT7=
EXTT8=
EXTT9=
EXTT10=
EXTT11=
EXTT12=
EXTT13=
EXTT14=
EXTT15=
EXTT16=
EXTT17=
EXTT18=
EXTT19=
PLAYORDER=
